<?xml version="1.0" encoding="utf-8"?>
<svg height="512px" id="Layer_1" style="enable-background:new 0 0 512 512;" version="1.1" viewBox="0 0 400 400" width="512px" xmlns="http://www.w3.org/2000/svg">
  <path d="M 43.088 220.231 L 44.888 222.331 L 180.888 378.831 C 185.488 384.131 192.388 387.431 200.088 387.431 C 207.788 387.431 214.688 384.031 219.288 378.831 L 355.188 222.631 L 357.488 220.031 C 359.188 217.531 360.188 214.531 360.188 211.331 C 360.188 202.631 352.788 195.531 343.588 195.531 L 343.588 195.531 L 56.788 195.531 L 56.788 195.531 C 47.588 195.531 40.188 202.631 40.188 211.331 C 40.188 214.631 41.288 217.731 43.088 220.231 Z" style="" transform="matrix(-1, 0, 0, -1, 400.375999, 582.962006)"/>
</svg>