<?xml version="1.0" encoding="utf-8"?>
<svg height="512px" id="Layer_1" style="enable-background:new 0 0 512 512;" version="1.1" viewBox="0 0 400 400" width="512px" xmlns="http://www.w3.org/2000/svg">
  <path d="M 43.832 224.7 L 45.632 226.8 L 181.632 383.3 C 186.232 388.6 193.132 391.9 200.832 391.9 C 208.532 391.9 215.432 388.5 220.032 383.3 L 355.932 227.1 L 358.232 224.5 C 359.932 222 360.932 219 360.932 215.8 C 360.932 207.1 353.532 200 344.332 200 L 344.332 200 L 57.532 200 L 57.532 200 C 48.332 200 40.932 207.1 40.932 215.8 C 40.932 219.1 42.032 222.2 43.832 224.7 Z" style="" transform="matrix(-1, 0, 0, -1, 401.863998, 591.899994)"/>
</svg>